# xmcd
#
# Track frame offsets: 
#        150
#        14630
#        30677
#        54602
#        70592
#        87075
#        114937
#        129587
#        145612
#        163932
#        181065
#        197387
#        214500
#        229557
#
# Disc length: 3359 seconds
#
# Revision: 5
# Processed by: cddbd v1.5.2PL0 Copyright (c) Steve Scherf et al.
# Submitted via: ExactAudioCopy v0.99pb4
#
DISCID=b10d1d0e
DTITLE=Kenny Neal - Bayou Blood
DYEAR=1992
DGENRE=Blues
TTITLE0=Howling At The Moon
TTITLE1=Right Train, Wrong Track
TTITLE2=Branded
TTITLE3=Gonna Put You Out Of My Mosery
TTITLE4=Lightning's Gonna Strike
TTITLE5=That Knife Don't Cut No More
TTITLE6=Bayou Blood
TTITLE7=Do I Have To Go That Far?
TTITLE8=Smoke Signals
TTITLE9=Neal And Prey
TTITLE10=Going To The Country
TTITLE11=I Can Read Between The Lies
TTITLE12=Big City Ways
TTITLE13=You Ain't Foolin' Me
EXTD=ALCD 4809\n\nSubmitted 6/6/97\n[Jmccoy@efn.org]
EXTT0=
EXTT1=
EXTT2=
EXTT3=
EXTT4=
EXTT5=
EXTT6=
EXTT7=
EXTT8=
EXTT9=
EXTT10=
EXTT11=
EXTT12=
EXTT13=
PLAYORDER=
